<?xml version="1.0" encoding="UTF-8" standalone="no"?>
<!-- Created with Inkscape (http://www.inkscape.org/) -->

<svg
   version="1.1"
   id="svg9"
   xml:space="preserve"
   width="297mm"
   height="210mm"
   viewBox="0 0 1122.5197 793.70081"
   sodipodi:docname="business-card-90x50mm.svg"
   inkscape:version="1.1.2 (0a00cf5339, 2022-02-04)"
   xmlns:inkscape="http://www.inkscape.org/namespaces/inkscape"
   xmlns:sodipodi="http://sodipodi.sourceforge.net/DTD/sodipodi-0.dtd"
   xmlns="http://www.w3.org/2000/svg"
   xmlns:svg="http://www.w3.org/2000/svg"><defs
     id="defs13"><inkscape:path-effect
       effect="copy_rotate"
       starting_point="784.48307,368.36272"
       id="path-effect108646"
       is_visible="true"
       lpeversion="1"
       method="normal"
       num_copies="4"
       starting_angle="-5.3271624"
       rotation_angle="5"
       gap="-0.01"
       origin="752.10173,365.34331"
       copies_to_360="false"
       mirror_copies="false"
       split_items="false" /><inkscape:path-effect
       effect="mirror_symmetry"
       start_point="752.09882,406.33639"
       end_point="752.09882,409.95486"
       center_point="752.09882,408.14562"
       id="path-effect108642"
       is_visible="true"
       lpeversion="1.1"
       mode="free"
       discard_orig_path="false"
       fuse_paths="false"
       oposite_fuse="false"
       split_items="false"
       split_open="false" /><inkscape:path-effect
       effect="copy_rotate"
       starting_point="784.48307,368.36272"
       id="path-effect106571"
       is_visible="true"
       lpeversion="1"
       method="normal"
       num_copies="4"
       starting_angle="-5.3271624"
       rotation_angle="5"
       gap="-0.01"
       origin="752.10173,365.34331"
       copies_to_360="false"
       mirror_copies="false"
       split_items="false" /><inkscape:path-effect
       effect="mirror_symmetry"
       start_point="752.09882,406.33639"
       end_point="752.09882,409.95486"
       center_point="752.09882,408.14562"
       id="path-effect106567"
       is_visible="true"
       lpeversion="1.1"
       mode="free"
       discard_orig_path="false"
       fuse_paths="false"
       oposite_fuse="false"
       split_items="false"
       split_open="false" /><inkscape:path-effect
       effect="copy_rotate"
       starting_point="786.73917,120.42306"
       id="path-effect105997"
       is_visible="true"
       lpeversion="1"
       method="normal"
       num_copies="25"
       starting_angle="0"
       rotation_angle="18"
       gap="-0.01"
       origin="780.38453,120.42306"
       copies_to_360="true"
       mirror_copies="false"
       split_items="false" /><inkscape:path-effect
       effect="copy_rotate"
       starting_point="784.48307,368.36272"
       id="path-effect105672"
       is_visible="true"
       lpeversion="1"
       method="normal"
       num_copies="4"
       starting_angle="-5.3271624"
       rotation_angle="5"
       gap="-0.01"
       origin="752.10173,365.34331"
       copies_to_360="false"
       mirror_copies="false"
       split_items="false" /><inkscape:path-effect
       effect="mirror_symmetry"
       start_point="752.09882,406.33639"
       end_point="752.09882,409.95486"
       center_point="752.09882,408.14562"
       id="path-effect105668"
       is_visible="true"
       lpeversion="1.1"
       mode="free"
       discard_orig_path="false"
       fuse_paths="false"
       oposite_fuse="false"
       split_items="false"
       split_open="false" /><inkscape:path-effect
       effect="copy_rotate"
       starting_point="784.48307,368.36272"
       id="path-effect104464"
       is_visible="true"
       lpeversion="1"
       method="normal"
       num_copies="4"
       starting_angle="-5.3271624"
       rotation_angle="5"
       gap="-0.01"
       origin="752.10173,365.34331"
       copies_to_360="false"
       mirror_copies="false"
       split_items="false" /><inkscape:path-effect
       effect="mirror_symmetry"
       start_point="752.09882,406.33639"
       end_point="752.09882,409.95486"
       center_point="752.09882,408.14562"
       id="path-effect104460"
       is_visible="true"
       lpeversion="1.1"
       mode="free"
       discard_orig_path="false"
       fuse_paths="false"
       oposite_fuse="false"
       split_items="false"
       split_open="false" /><inkscape:path-effect
       effect="copy_rotate"
       starting_point="760.04605,364.98166"
       id="path-effect85895"
       is_visible="true"
       lpeversion="1"
       method="normal"
       num_copies="18"
       starting_angle="0"
       rotation_angle="60"
       gap="-0.01"
       origin="752.10173,364.98166"
       copies_to_360="true"
       mirror_copies="false"
       split_items="false" /><inkscape:path-effect
       effect="copy_rotate"
       starting_point="753.10176,364.98166"
       id="path-effect85810"
       is_visible="true"
       lpeversion="1"
       method="normal"
       num_copies="17"
       starting_angle="0"
       rotation_angle="60"
       gap="-0.01"
       origin="752.10173,364.98166"
       copies_to_360="true"
       mirror_copies="false"
       split_items="false" /><inkscape:path-effect
       effect="copy_rotate"
       starting_point="784.48307,368.36272"
       id="path-effect85748"
       is_visible="true"
       lpeversion="1"
       method="normal"
       num_copies="4"
       starting_angle="-5.3271624"
       rotation_angle="5"
       gap="-0.01"
       origin="752.10173,365.34331"
       copies_to_360="false"
       mirror_copies="false"
       split_items="false" /><inkscape:path-effect
       effect="copy_rotate"
       starting_point="760.04605,364.98166"
       id="path-effect85645"
       is_visible="false"
       lpeversion="1"
       method="normal"
       num_copies="6"
       starting_angle="0"
       rotation_angle="60"
       gap="-0.01"
       origin="752.10173,364.98166"
       copies_to_360="true"
       mirror_copies="false"
       split_items="false" /><inkscape:path-effect
       effect="copy_rotate"
       starting_point="774.76956,-362.00373"
       id="path-effect85511"
       is_visible="true"
       lpeversion="1"
       method="normal"
       num_copies="4"
       starting_angle="-7.4842313"
       rotation_angle="5"
       gap="-0.01"
       origin="752.10173,-364.98166"
       copies_to_360="false"
       mirror_copies="false"
       split_items="false" /><inkscape:path-effect
       effect="copy_rotate"
       starting_point="754.05199,364.98166"
       id="path-effect85408"
       is_visible="false"
       lpeversion="1"
       method="normal"
       num_copies="6"
       starting_angle="0"
       rotation_angle="60"
       gap="-0.01"
       origin="752.10173,364.98166"
       copies_to_360="true"
       mirror_copies="false"
       split_items="false" /><inkscape:path-effect
       effect="copy_rotate"
       starting_point="761.22021,364.98166"
       id="path-effect85307"
       is_visible="true"
       lpeversion="1"
       method="normal"
       num_copies="17"
       starting_angle="0"
       rotation_angle="60"
       gap="-0.01"
       origin="752.10173,364.98166"
       copies_to_360="true"
       mirror_copies="false"
       split_items="false" /><inkscape:path-effect
       effect="copy_rotate"
       starting_point="0,0"
       origin="752.18,366.11"
       id="path-effect63358"
       is_visible="false"
       lpeversion="1"
       method="normal"
       num_copies="12"
       starting_angle="0"
       rotation_angle="60"
       gap="-0.01"
       copies_to_360="true"
       mirror_copies="false"
       split_items="false" /><inkscape:path-effect
       effect="mirror_symmetry"
       start_point="752.09882,406.33639"
       end_point="752.09882,409.95486"
       center_point="752.09882,408.14562"
       id="path-effect63105"
       is_visible="true"
       lpeversion="1.1"
       mode="free"
       discard_orig_path="false"
       fuse_paths="false"
       oposite_fuse="false"
       split_items="false"
       split_open="false" /><inkscape:path-effect
       effect="mirror_symmetry"
       start_point="752.09882,428.47404"
       end_point="752.09882,431.96728"
       center_point="752.09882,430.22066"
       id="path-effect25102"
       is_visible="true"
       lpeversion="1.1"
       mode="free"
       discard_orig_path="false"
       fuse_paths="false"
       oposite_fuse="false"
       split_items="false"
       split_open="false" /><inkscape:path-effect
       effect="clone_original"
       id="path-effect25100"
       is_visible="true"
       lpeversion="1"
       linkeditem=""
       method="d"
       attributes=""
       css_properties=""
       allow_transforms="true" /><inkscape:path-effect
       effect="copy_rotate"
       starting_point="0,0"
       origin="998.31,313.55"
       id="path-effect23957"
       is_visible="false"
       lpeversion="1"
       method="normal"
       num_copies="12"
       starting_angle="0"
       rotation_angle="91.2"
       gap="0"
       copies_to_360="true"
       mirror_copies="false"
       split_items="false" /><inkscape:path-effect
       effect="copy_rotate"
       starting_point="0,0"
       origin="982.71174,244.34871"
       id="path-effect23955"
       is_visible="true"
       lpeversion="1"
       method="normal"
       num_copies="10"
       starting_angle="0"
       rotation_angle="60"
       gap="-0.01"
       copies_to_360="true"
       mirror_copies="false"
       split_items="false" /><inkscape:path-effect
       effect="bspline"
       id="path-effect215207"
       is_visible="true"
       lpeversion="1"
       weight="33.333333"
       steps="2"
       helper_size="0"
       apply_no_weight="true"
       apply_with_weight="true"
       only_selected="false" /><clipPath
       clipPathUnits="userSpaceOnUse"
       id="clipPath217599"><path
         id="path217601"
         style="fill:#0000ff;fill-opacity:1;stroke:none;stroke-width:0.225;stroke-miterlimit:4;stroke-dasharray:none"
         d="m 662.66018,-408.34396 v 154.35205 h 152.20607 v -154.35205 z m 73.88086,30.42041 c 1.62013,0.0112 3.28943,0.0301 4.28613,0.0542 0.9967,0.0241 1.3202,0.0529 2.52393,0.25049 1.20372,0.19762 3.28734,0.56327 5.41113,1.13379 2.12376,0.57051 4.28736,1.34602 6.37649,2.13281 2.08905,0.78679 4.10422,1.58598 5.92822,2.53418 1.82393,0.9482 3.45698,2.04473 4.96725,3.17285 1.51028,1.12813 2.89695,2.28694 4.3887,3.63867 1.49168,1.35174 3.08805,2.8968 4.2246,4.37256 1.13655,1.47576 1.81463,2.88254 2.74073,4.37256 0.92602,1.49003 2.09932,3.06264 3.09375,4.61572 0.99435,1.55308 1.8099,3.08639 2.4243,4.77979 0.6144,1.6934 1.02832,3.54643 1.53517,5.31885 0.50678,1.77241 1.10558,3.46438 1.40768,4.44727 0.3021,0.98288 0.30825,1.25795 0.2886,2.33642 -0.0195,1.07847 -0.0652,2.95996 -0.0776,4.59814 -0.0127,1.63819 0.008,3.03255 -0.15232,4.91455 -0.15923,1.88201 -0.49733,4.25088 -0.76905,6.30323 -0.2718,2.05234 -0.47648,3.78742 -0.7515,4.72558 -0.27495,0.93816 -0.62003,1.08079 -0.89205,1.27588 -0.2721,0.19509 -0.4707,0.44258 -0.55958,0.71338 -0.089,0.2708 -0.0683,0.56481 -0.30615,1.26855 -0.23805,0.70375 -0.7356,1.81814 -1.67145,3.34864 -0.93577,1.5305 -2.31097,3.47702 -3.62835,5.25 -1.31745,1.77298 -2.57737,3.37269 -4.54102,5.18408 -1.96373,1.81139 -4.63103,3.83365 -6.74415,5.50049 -2.11313,1.66684 -3.67103,2.97724 -5.14605,4.0708 -1.47495,1.09357 -2.86575,1.97 -4.32713,2.59717 -1.4613,0.62717 -2.99295,1.00488 -5.15625,1.57031 -2.16325,0.56544 -4.95882,1.31943 -7.77977,1.73291 -2.82094,0.41349 -5.66783,0.4868 -8.10791,0.3545 -2.44007,-0.13232 -4.4729,-0.47054 -6.21093,-0.77491 -1.73804,-0.30437 -3.18125,-0.5749 -4.40039,-0.82471 -1.21915,-0.2498 -2.21376,-0.47858 -2.99268,-0.80419 -0.77892,-0.32562 -1.3428,-0.74849 -1.72413,-1.06348 -0.38132,-0.31499 -0.5802,-0.52268 -0.92871,-0.64746 -0.34849,-0.12479 -0.84624,-0.16553 -1.36962,-0.20069 -0.52338,-0.0352 -1.07235,-0.065 -1.64209,-0.3955 -0.56975,-0.33051 -1.1593,-0.96255 -1.81494,-1.34619 -0.65564,-0.38365 -1.37731,-0.51824 -1.99073,-0.77491 -0.61341,-0.25667 -1.11868,-0.6367 -1.77831,-1.15283 -0.65964,-0.51614 -1.47393,-1.1678 -2.55909,-2.17383 -1.08516,-1.00602 -2.44176,-2.36636 -3.48486,-3.22851 -1.0431,-0.86216 -1.77279,-1.22552 -2.22363,-1.67871 -0.45084,-0.4532 -0.62173,-0.99642 -0.78956,-1.36817 -0.16782,-0.37174 -0.33257,-0.5723 -0.63721,-0.78222 -0.30462,-0.20994 -0.75003,-0.4293 -1.19092,-0.95802 -0.44088,-0.52871 -0.87787,-1.36726 -1.15869,-1.90136 -0.2808,-0.5341 -0.40503,-0.76319 -0.59619,-0.88769 -0.19115,-0.12452 -0.4487,-0.14439 -0.88623,-0.69581 -0.43752,-0.55142 -1.05501,-1.6355 -1.43847,-2.354 -0.38347,-0.71851 -0.53331,-1.07134 -0.72803,-1.24512 -0.19471,-0.17378 -0.4345,-0.16671 -0.69727,-0.79394 -0.26276,-0.62724 -0.54718,-1.88849 -0.71045,-2.58692 -0.16326,-0.69843 -0.20453,-0.83435 -0.2915,-0.9917 -0.087,-0.15734 -0.22122,-0.33608 -0.49658,-0.84375 -0.27536,-0.50766 -0.6926,-1.34498 -0.86133,-1.87061 -0.16872,-0.52561 -0.0875,-0.73894 -0.0424,-0.91259 0.0451,-0.17365 0.0536,-0.30757 0.0381,-0.43066 -0.0155,-0.1231 -0.0551,-0.23566 -0.12597,-0.36329 -0.0709,-0.12762 -0.17271,-0.26989 -0.34131,-0.46288 -0.1686,-0.193 -0.40443,-0.43653 -0.50098,-1.04004 -0.0966,-0.60352 -0.0537,-1.56739 -0.0103,-2.10059 0.0435,-0.5332 0.0875,-0.63516 0.11426,-0.72364 0.0268,-0.0885 0.0365,-0.16394 0.0146,-0.25195 -0.0218,-0.088 -0.0757,-0.18905 -0.14501,-0.27392 -0.0693,-0.0849 -0.15382,-0.15279 -0.28418,-0.19336 -0.13037,-0.0406 -0.30631,-0.0541 -0.48633,-0.0718 -0.18002,-0.0177 -0.36484,-0.0398 -0.39844,-0.43652 -0.0336,-0.3967 0.084,-1.16758 0.20215,-1.59521 0.11817,-0.42763 0.23629,-0.5119 0.33106,-0.62549 0.0948,-0.11359 0.16757,-0.25752 0.20068,-0.35889 0.0331,-0.10137 0.0266,-0.15974 -0.0117,-0.24316 -0.0383,-0.0834 -0.10952,-0.19159 -0.208,-0.28711 -0.0985,-0.0955 -0.22394,-0.17884 -0.4336,-0.29737 -0.20966,-0.11851 -0.50403,-0.27184 -0.61963,-0.57275 -0.11559,-0.30091 -0.0513,-0.74935 0.0176,-1.00048 0.0688,-0.25113 0.14297,-0.30444 0.25635,-0.33546 0.11338,-0.031 0.26449,-0.0386 0.39697,-0.0454 0.13248,-0.007 0.2452,-0.0127 0.3501,-0.041 0.10489,-0.0283 0.20336,-0.0797 0.25048,-0.16406 0.0471,-0.0844 0.0434,-0.20357 0.0337,-0.31201 -0.01,-0.10844 -0.0259,-0.20679 -0.0718,-0.30176 -0.0458,-0.095 -0.12085,-0.18592 -0.24023,-0.24463 -0.11938,-0.0587 -0.2831,-0.0844 -0.44677,-0.0879 -0.16368,-0.004 -0.32822,0.0159 -0.48487,-0.0615 -0.15665,-0.0774 -0.30504,-0.25135 -0.38819,-0.77344 -0.0831,-0.52209 -0.0997,-1.39254 -0.0234,-1.83398 0.0763,-0.44144 0.24414,-0.45377 0.37062,-0.48193 0.12647,-0.0282 0.21194,-0.0718 0.28271,-0.1128 0.0708,-0.041 0.12704,-0.0788 0.16699,-0.16406 0.04,-0.0853 0.0631,-0.21871 0.0615,-0.32812 -10e-4,-0.10942 -0.0285,-0.19603 -0.0864,-0.271 -0.058,-0.075 -0.14682,-0.13935 -0.24903,-0.21827 -0.10221,-0.0789 -0.21864,-0.17124 -0.33837,-0.25927 -0.11974,-0.088 -0.24265,-0.17142 -0.28419,-0.68994 -0.0416,-0.51852 1e-4,-1.47294 0.0571,-1.96289 0.057,-0.48996 0.12792,-0.51441 0.23292,-0.53467 0.10499,-0.0202 0.24402,-0.0367 0.38672,-0.0483 0.14269,-0.0116 0.28923,-0.0181 0.42187,-0.0615 0.13264,-0.0434 0.25088,-0.12272 0.3208,-0.21387 0.0699,-0.0912 0.0916,-0.1942 0.10108,-0.26807 0.01,-0.0739 0.008,-0.11959 -0.019,-0.18018 -0.027,-0.0606 -0.0792,-0.1372 -0.14063,-0.21386 -0.0614,-0.0767 -0.13247,-0.15276 -0.26659,-0.20947 -0.13413,-0.0567 -0.33126,-0.0923 -0.50098,-0.14209 -0.16972,-0.0498 -0.31147,-0.11378 -0.32227,-0.86133 -0.0108,-0.74756 0.10971,-2.17979 0.31934,-2.87988 0.20964,-0.70009 0.50672,-0.66788 0.71485,-0.67091 0.20811,-0.003 0.32811,-0.0407 0.43798,-0.10546 0.10988,-0.0648 0.20994,-0.1569 0.27392,-0.27246 0.064,-0.11556 0.0925,-0.25569 0.0981,-0.40137 0.006,-0.14567 -0.0124,-0.29668 -0.0894,-0.43067 -0.077,-0.13398 -0.21384,-0.24939 -0.21972,-0.98437 -0.006,-0.73498 0.12148,-2.0891 0.30322,-2.7539 0.18174,-0.66481 0.41582,-0.6402 0.63575,-0.59034 0.21993,0.0499 0.42476,0.12437 0.60351,0.16846 0.17875,0.0441 0.33258,0.0584 0.45996,0.0366 0.12739,-0.0218 0.2295,-0.0798 0.31494,-0.14649 0.0854,-0.0667 0.15372,-0.14275 0.17871,-0.2329 0.025,-0.0902 0.007,-0.19431 -0.0264,-0.30469 -0.033,-0.11039 -0.0806,-0.22715 -0.1289,-0.34864 -0.0483,-0.12149 -0.0972,-0.24832 -0.0762,-0.80127 0.0211,-0.55294 0.1132,-1.53193 0.23584,-2.06836 0.12264,-0.53642 0.27493,-0.62879 0.44824,-0.67968 0.17331,-0.0509 0.36678,-0.0596 0.5127,-0.0674 0.14592,-0.008 0.24472,-0.0162 0.34131,-0.0395 0.0966,-0.0234 0.19118,-0.0622 0.25634,-0.12304 0.0652,-0.0609 0.10066,-0.14304 0.11866,-0.23877 0.018,-0.0957 0.0178,-0.20521 0.022,-0.30323 0.004,-0.098 0.0124,-0.18501 0.022,-0.24902 0.01,-0.064 0.0205,-0.10484 0.0835,-0.27686 0.063,-0.17201 0.1782,-0.47529 0.23584,-0.62694 0.0577,-0.15166 0.0588,-0.15157 0.41895,-0.77637 0.36017,-0.62481 1.08033,-1.87523 1.54834,-2.50782 0.46801,-0.63258 0.68198,-0.64761 0.87598,-0.72216 0.19399,-0.0745 0.36816,-0.20866 0.46728,-0.46143 0.0991,-0.25277 0.12372,-0.62524 0.38232,-1.38428 0.2586,-0.75904 0.75143,-1.90404 1.19239,-2.50195 0.44096,-0.59792 0.82872,-0.64812 1.14843,-0.85694 0.31972,-0.20881 0.57205,-0.57642 1.38135,-1.33007 0.80931,-0.75365 2.1759,-1.89211 3.46729,-2.9751 1.2914,-1.08299 2.50762,-2.10992 3.23877,-2.68213 0.73115,-0.5722 0.97673,-0.69013 1.16748,-0.79687 0.19075,-0.10675 0.32645,-0.20211 0.45996,-0.31202 0.13352,-0.10991 0.26461,-0.23477 0.95361,-0.73535 0.689,-0.50057 1.93622,-1.37747 3.48926,-2.16064 1.55304,-0.78317 3.41266,-1.4717 5.1709,-2.14307 1.75824,-0.67136 3.41465,-1.32566 5.27783,-1.7959 1.86319,-0.47023 3.93285,-0.75622 5.75244,-0.89794 1.81959,-0.14173 3.38964,-0.13872 5.00977,-0.12745 z" /></clipPath><inkscape:path-effect
       effect="copy_rotate"
       starting_point="761.22021,364.98166"
       id="path-effect85307-5"
       is_visible="true"
       lpeversion="1"
       method="normal"
       num_copies="17"
       starting_angle="0"
       rotation_angle="60"
       gap="-0.01"
       origin="752.10173,364.98166"
       copies_to_360="true"
       mirror_copies="false"
       split_items="false" /><inkscape:path-effect
       effect="mirror_symmetry"
       start_point="752.09882,428.47404"
       end_point="752.09882,431.96728"
       center_point="752.09882,430.22066"
       id="path-effect25102-4"
       is_visible="true"
       lpeversion="1.1"
       mode="free"
       discard_orig_path="false"
       fuse_paths="false"
       oposite_fuse="false"
       split_items="false"
       split_open="false" /><inkscape:path-effect
       effect="copy_rotate"
       starting_point="753.10176,364.98166"
       id="path-effect85810-8"
       is_visible="true"
       lpeversion="1"
       method="normal"
       num_copies="17"
       starting_angle="0"
       rotation_angle="60"
       gap="-0.01"
       origin="752.10173,364.98166"
       copies_to_360="true"
       mirror_copies="false"
       split_items="false" /><inkscape:path-effect
       effect="mirror_symmetry"
       start_point="752.09882,406.33639"
       end_point="752.09882,409.95486"
       center_point="752.09882,408.14562"
       id="path-effect63105-1"
       is_visible="true"
       lpeversion="1.1"
       mode="free"
       discard_orig_path="false"
       fuse_paths="false"
       oposite_fuse="false"
       split_items="false"
       split_open="false" /><inkscape:path-effect
       effect="copy_rotate"
       starting_point="784.48307,368.36272"
       id="path-effect85748-2"
       is_visible="true"
       lpeversion="1"
       method="normal"
       num_copies="4"
       starting_angle="-5.3271624"
       rotation_angle="5"
       gap="-0.01"
       origin="752.10173,365.34331"
       copies_to_360="false"
       mirror_copies="false"
       split_items="false" /><inkscape:path-effect
       effect="copy_rotate"
       starting_point="760.04605,364.98166"
       id="path-effect85895-8"
       is_visible="true"
       lpeversion="1"
       method="normal"
       num_copies="18"
       starting_angle="0"
       rotation_angle="20"
       gap="-0.01"
       origin="752.10173,364.98166"
       copies_to_360="true"
       mirror_copies="false"
       split_items="false" /><inkscape:path-effect
       effect="copy_rotate"
       starting_point="754.03537,-364.72763"
       id="path-effect85511-9"
       is_visible="true"
       lpeversion="1"
       method="normal"
       num_copies="4"
       starting_angle="-7.4842313"
       rotation_angle="5"
       gap="-0.01"
       origin="752.10173,-364.98166"
       copies_to_360="false"
       mirror_copies="false"
       split_items="false" /><inkscape:path-effect
       effect="copy_rotate"
       starting_point="761.22021,364.98166"
       id="path-effect85307-50"
       is_visible="false"
       lpeversion="1"
       method="normal"
       num_copies="17"
       starting_angle="0"
       rotation_angle="60"
       gap="-0.01"
       origin="752.10173,364.98166"
       copies_to_360="true"
       mirror_copies="false"
       split_items="false" /><inkscape:path-effect
       effect="mirror_symmetry"
       start_point="752.09882,428.47404"
       end_point="752.09882,431.96728"
       center_point="752.09882,430.22066"
       id="path-effect25102-6"
       is_visible="true"
       lpeversion="1.1"
       mode="free"
       discard_orig_path="false"
       fuse_paths="false"
       oposite_fuse="false"
       split_items="false"
       split_open="false" /><inkscape:path-effect
       effect="copy_rotate"
       starting_point="753.10176,364.98166"
       id="path-effect85810-4"
       is_visible="true"
       lpeversion="1"
       method="normal"
       num_copies="17"
       starting_angle="0"
       rotation_angle="60"
       gap="-0.01"
       origin="752.10173,364.98166"
       copies_to_360="true"
       mirror_copies="false"
       split_items="false" /><inkscape:path-effect
       effect="mirror_symmetry"
       start_point="752.09882,406.33639"
       end_point="752.09882,409.95486"
       center_point="752.09882,408.14562"
       id="path-effect63105-6"
       is_visible="true"
       lpeversion="1.1"
       mode="free"
       discard_orig_path="false"
       fuse_paths="false"
       oposite_fuse="false"
       split_items="false"
       split_open="false" /><inkscape:path-effect
       effect="copy_rotate"
       starting_point="784.48307,368.36272"
       id="path-effect85748-25"
       is_visible="true"
       lpeversion="1"
       method="normal"
       num_copies="4"
       starting_angle="-5.3271624"
       rotation_angle="5"
       gap="-0.01"
       origin="752.10173,365.34331"
       copies_to_360="false"
       mirror_copies="false"
       split_items="false" /><inkscape:path-effect
       effect="copy_rotate"
       starting_point="760.04605,364.98166"
       id="path-effect85895-86"
       is_visible="true"
       lpeversion="1"
       method="normal"
       num_copies="18"
       starting_angle="0"
       rotation_angle="20"
       gap="-0.01"
       origin="752.10173,364.98166"
       copies_to_360="true"
       mirror_copies="false"
       split_items="false" /><inkscape:path-effect
       effect="copy_rotate"
       starting_point="754.03537,-364.72763"
       id="path-effect85511-2"
       is_visible="true"
       lpeversion="1"
       method="normal"
       num_copies="4"
       starting_angle="-7.4843139"
       rotation_angle="5"
       gap="-0.01"
       origin="752.10173,-364.98166"
       copies_to_360="false"
       mirror_copies="false"
       split_items="false" /><inkscape:path-effect
       effect="copy_rotate"
       starting_point="786.73917,120.42306"
       id="path-effect105997-9"
       is_visible="true"
       lpeversion="1"
       method="normal"
       num_copies="25"
       starting_angle="0"
       rotation_angle="18"
       gap="-0.01"
       origin="780.38453,120.42306"
       copies_to_360="true"
       mirror_copies="false"
       split_items="false" /><inkscape:path-effect
       effect="mirror_symmetry"
       start_point="752.09882,428.47404"
       end_point="752.09882,431.96728"
       center_point="752.09882,430.22066"
       id="path-effect25102-6-0"
       is_visible="true"
       lpeversion="1.1"
       mode="free"
       discard_orig_path="false"
       fuse_paths="false"
       oposite_fuse="false"
       split_items="false"
       split_open="false" /><inkscape:path-effect
       effect="copy_rotate"
       starting_point="753.10176,364.98166"
       id="path-effect85810-4-8"
       is_visible="true"
       lpeversion="1"
       method="normal"
       num_copies="17"
       starting_angle="0"
       rotation_angle="60"
       gap="-0.01"
       origin="752.10173,364.98166"
       copies_to_360="true"
       mirror_copies="false"
       split_items="false" /><inkscape:path-effect
       effect="mirror_symmetry"
       start_point="752.09882,406.33639"
       end_point="752.09882,409.95486"
       center_point="752.09882,408.14562"
       id="path-effect105668-1"
       is_visible="true"
       lpeversion="1.1"
       mode="free"
       discard_orig_path="false"
       fuse_paths="false"
       oposite_fuse="false"
       split_items="false"
       split_open="false" /><inkscape:path-effect
       effect="copy_rotate"
       starting_point="784.48307,368.36272"
       id="path-effect105672-3"
       is_visible="true"
       lpeversion="1"
       method="normal"
       num_copies="4"
       starting_angle="-5.3271624"
       rotation_angle="5"
       gap="-0.01"
       origin="752.10173,365.34331"
       copies_to_360="false"
       mirror_copies="false"
       split_items="false" /><inkscape:path-effect
       effect="copy_rotate"
       starting_point="760.04605,364.98166"
       id="path-effect85895-86-1"
       is_visible="true"
       lpeversion="1"
       method="normal"
       num_copies="18"
       starting_angle="0"
       rotation_angle="20"
       gap="-0.01"
       origin="752.10173,364.98166"
       copies_to_360="true"
       mirror_copies="false"
       split_items="false" /><inkscape:path-effect
       effect="copy_rotate"
       starting_point="754.03537,-364.72763"
       id="path-effect85511-2-1"
       is_visible="true"
       lpeversion="1"
       method="normal"
       num_copies="4"
       starting_angle="-7.4843139"
       rotation_angle="5"
       gap="-0.01"
       origin="752.10173,-364.98166"
       copies_to_360="false"
       mirror_copies="false"
       split_items="false" /><inkscape:path-effect
       effect="copy_rotate"
       starting_point="786.73917,120.42306"
       id="path-effect105997-6"
       is_visible="true"
       lpeversion="1"
       method="normal"
       num_copies="25"
       starting_angle="0"
       rotation_angle="18"
       gap="-0.01"
       origin="780.38453,120.42306"
       copies_to_360="true"
       mirror_copies="false"
       split_items="false" /><inkscape:path-effect
       effect="mirror_symmetry"
       start_point="752.09882,428.47404"
       end_point="752.09882,431.96728"
       center_point="752.09882,430.22066"
       id="path-effect25102-6-9"
       is_visible="true"
       lpeversion="1.1"
       mode="free"
       discard_orig_path="false"
       fuse_paths="false"
       oposite_fuse="false"
       split_items="false"
       split_open="false" /><inkscape:path-effect
       effect="copy_rotate"
       starting_point="753.10176,364.98166"
       id="path-effect85810-4-87"
       is_visible="true"
       lpeversion="1"
       method="normal"
       num_copies="17"
       starting_angle="0"
       rotation_angle="60"
       gap="-0.01"
       origin="752.10173,364.98166"
       copies_to_360="true"
       mirror_copies="false"
       split_items="false" /><inkscape:path-effect
       effect="mirror_symmetry"
       start_point="752.09882,406.33639"
       end_point="752.09882,409.95486"
       center_point="752.09882,408.14562"
       id="path-effect105668-2"
       is_visible="true"
       lpeversion="1.1"
       mode="free"
       discard_orig_path="false"
       fuse_paths="false"
       oposite_fuse="false"
       split_items="false"
       split_open="false" /><inkscape:path-effect
       effect="copy_rotate"
       starting_point="784.48307,368.36272"
       id="path-effect105672-8"
       is_visible="true"
       lpeversion="1"
       method="normal"
       num_copies="4"
       starting_angle="-5.3271624"
       rotation_angle="5"
       gap="-0.01"
       origin="752.10173,365.34331"
       copies_to_360="false"
       mirror_copies="false"
       split_items="false" /><inkscape:path-effect
       effect="copy_rotate"
       starting_point="760.04605,364.98166"
       id="path-effect85895-86-2"
       is_visible="true"
       lpeversion="1"
       method="normal"
       num_copies="18"
       starting_angle="0"
       rotation_angle="20"
       gap="-0.01"
       origin="752.10173,364.98166"
       copies_to_360="true"
       mirror_copies="false"
       split_items="false" /><inkscape:path-effect
       effect="copy_rotate"
       starting_point="754.03537,-364.72763"
       id="path-effect85511-2-9"
       is_visible="true"
       lpeversion="1"
       method="normal"
       num_copies="4"
       starting_angle="-7.4843139"
       rotation_angle="5"
       gap="-0.01"
       origin="752.10173,-364.98166"
       copies_to_360="false"
       mirror_copies="false"
       split_items="false" /></defs><sodipodi:namedview
     id="namedview11"
     pagecolor="#ffffff"
     bordercolor="#999999"
     borderopacity="1"
     inkscape:pageshadow="0"
     inkscape:pageopacity="1"
     inkscape:pagecheckerboard="0"
     showgrid="false"
     inkscape:zoom="0.7071068"
     inkscape:cx="515.48083"
     inkscape:cy="344.36099"
     inkscape:window-width="1920"
     inkscape:window-height="946"
     inkscape:window-x="0"
     inkscape:window-y="0"
     inkscape:window-maximized="1"
     inkscape:current-layer="layer2"
     inkscape:snap-intersection-paths="true"
     inkscape:object-nodes="true"
     showguides="true"
     inkscape:snap-object-midpoints="true"
     inkscape:guide-bbox="true"
     inkscape:snap-nodes="true"
     inkscape:snap-midpoints="false"
     inkscape:object-paths="true"
     inkscape:snap-grids="false"
     inkscape:snap-others="true"
     inkscape:snap-bbox="true"
     inkscape:bbox-paths="true"
     inkscape:snap-to-guides="true"
     inkscape:snap-global="true"
     inkscape:document-units="mm"
     units="mm" /><g
     id="g15"
     inkscape:groupmode="layer"
     inkscape:label="project"
     transform="matrix(1.3333333,0,0,-1.3333333,0,793.7008)"
     style="display:inline"><text
       transform="scale(1,-1)"
       style="font-variant:normal;font-weight:normal;font-size:10px;font-family:MeiryoUI;-inkscape-font-specification:MeiryoUI;writing-mode:lr-tb;fill:#003e59;fill-opacity:1;fill-rule:nonzero;stroke:none"
       id="text43"
       x="-136.4969"
       y="-670.61108"><tspan
         x="-136.4969 -129.6669 -123.8969 -118.4739 -112.5339 -106.4539 -101.3939 -98.853897 -93.0839 -90.443901 -84.503899 -81.103897 -75.303902 -71.040405 -67.250404 -61.590397 -56.610401 -52.8204 -47.319202 -42.249195 -37.189198 -31.009199 -25.239202"
         y="-670.61108"
         sodipodi:role="line"
         id="tspan4301" /></text><text
       transform="scale(1,-1)"
       style="font-variant:normal;font-weight:normal;font-size:10px;font-family:MeiryoUI;-inkscape-font-specification:MeiryoUI;writing-mode:lr-tb;fill:#003e59;fill-opacity:1;fill-rule:nonzero;stroke:none"
       id="text43-9"
       x="169.74174"
       y="-670.47705"><tspan
         x="169.74174 176.57175 182.34174 187.76474 193.70474 199.78474 204.84474 207.38474 213.15474 215.79474 221.73474 225.13474 230.93474 235.19824 238.98824 244.64824 249.62823 253.41824 258.91943 263.98944 269.04944 275.22943 280.99945"
         y="-670.47705"
         sodipodi:role="line"
         id="tspan4301-8" /></text></g><g
     inkscape:groupmode="layer"
     id="layer2"
     inkscape:label="84x44-content-area"
     style="display:inline"><g
       id="g947-7-1-2-0"
       transform="matrix(1.3333333,0,0,-1.3333333,30.062448,864.47803)"
       style="display:inline"><path
         d="M 37.8377,589.5309 V 574.831"
         style="fill:none;stroke:#6e6e6e;stroke-width:0.216;stroke-linecap:butt;stroke-linejoin:miter;stroke-miterlimit:22.9256;stroke-dasharray:none;stroke-opacity:1"
         id="path949-6-1-2-4" /><path
         d="m 30.4877,582.1809 h 14.7"
         style="fill:none;stroke:#6e6e6e;stroke-width:0.216;stroke-linecap:butt;stroke-linejoin:miter;stroke-miterlimit:22.9256;stroke-dasharray:none;stroke-opacity:1"
         id="path951-4-3-6-7" /></g><g
       id="g947-7-1-2-6"
       transform="matrix(1.3333333,0,0,-1.3333333,347.54277,864.47797)"
       style="display:inline"><path
         d="M 37.8377,589.5309 V 574.831"
         style="fill:none;stroke:#6e6e6e;stroke-width:0.216;stroke-linecap:butt;stroke-linejoin:miter;stroke-miterlimit:22.9256;stroke-dasharray:none;stroke-opacity:1"
         id="path949-6-1-2-89" /><path
         d="m 30.4877,582.1809 h 14.7"
         style="fill:none;stroke:#6e6e6e;stroke-width:0.216;stroke-linecap:butt;stroke-linejoin:miter;stroke-miterlimit:22.9256;stroke-dasharray:none;stroke-opacity:1"
         id="path951-4-3-6-0" /></g><g
       id="g947-7-1-2-68"
       transform="matrix(1.3333333,0,0,-1.3333333,347.54277,1030.7772)"
       style="display:inline"><path
         d="M 37.8377,589.5309 V 574.831"
         style="fill:none;stroke:#6e6e6e;stroke-width:0.216;stroke-linecap:butt;stroke-linejoin:miter;stroke-miterlimit:22.9256;stroke-dasharray:none;stroke-opacity:1"
         id="path949-6-1-2-7" /><path
         d="m 30.4877,582.1809 h 14.7"
         style="fill:none;stroke:#6e6e6e;stroke-width:0.216;stroke-linecap:butt;stroke-linejoin:miter;stroke-miterlimit:22.9256;stroke-dasharray:none;stroke-opacity:1"
         id="path951-4-3-6-9" /></g><g
       id="g947-7-1-2-03"
       transform="matrix(1.3333333,0,0,-1.3333333,30.062448,1030.7772)"
       style="display:inline"><path
         d="M 37.8377,589.5309 V 574.831"
         style="fill:none;stroke:#6e6e6e;stroke-width:0.216;stroke-linecap:butt;stroke-linejoin:miter;stroke-miterlimit:22.9256;stroke-dasharray:none;stroke-opacity:1"
         id="path949-6-1-2-3" /><path
         d="m 30.4877,582.1809 h 14.7"
         style="fill:none;stroke:#6e6e6e;stroke-width:0.216;stroke-linecap:butt;stroke-linejoin:miter;stroke-miterlimit:22.9256;stroke-dasharray:none;stroke-opacity:1"
         id="path951-4-3-6-3" /></g><rect
       style="display:inline;fill:#008000;fill-opacity:0.25;stroke:none;stroke-width:2.78492;stroke-opacity:1"
       id="rect109726"
       width="238.11024"
       height="124.72441"
       x="60.384537"
       y="-529.09802"
       transform="matrix(1.3333333,0,0,1.3333333,0,793.7008)" /><g
       id="g947-7-1-2-0-3"
       transform="matrix(1.3333333,0,0,-1.3333333,437.68089,864.4541)"
       style="display:inline"><path
         d="M 37.8377,589.5309 V 574.831"
         style="fill:none;stroke:#6e6e6e;stroke-width:0.216;stroke-linecap:butt;stroke-linejoin:miter;stroke-miterlimit:22.9256;stroke-dasharray:none;stroke-opacity:1"
         id="path949-6-1-2-4-2" /><path
         d="m 30.4877,582.1809 h 14.7"
         style="fill:none;stroke:#6e6e6e;stroke-width:0.216;stroke-linecap:butt;stroke-linejoin:miter;stroke-miterlimit:22.9256;stroke-dasharray:none;stroke-opacity:1"
         id="path951-4-3-6-7-6" /></g><g
       id="g947-7-1-2-6-5"
       transform="matrix(1.3333333,0,0,-1.3333333,755.16121,864.45404)"
       style="display:inline"><path
         d="M 37.8377,589.5309 V 574.831"
         style="fill:none;stroke:#6e6e6e;stroke-width:0.216;stroke-linecap:butt;stroke-linejoin:miter;stroke-miterlimit:22.9256;stroke-dasharray:none;stroke-opacity:1"
         id="path949-6-1-2-89-2" /><path
         d="m 30.4877,582.1809 h 14.7"
         style="fill:none;stroke:#6e6e6e;stroke-width:0.216;stroke-linecap:butt;stroke-linejoin:miter;stroke-miterlimit:22.9256;stroke-dasharray:none;stroke-opacity:1"
         id="path951-4-3-6-0-6" /></g><g
       id="g947-7-1-2-68-5"
       transform="matrix(1.3333333,0,0,-1.3333333,755.16121,1030.7533)"
       style="display:inline"><path
         d="M 37.8377,589.5309 V 574.831"
         style="fill:none;stroke:#6e6e6e;stroke-width:0.216;stroke-linecap:butt;stroke-linejoin:miter;stroke-miterlimit:22.9256;stroke-dasharray:none;stroke-opacity:1"
         id="path949-6-1-2-7-8" /><path
         d="m 30.4877,582.1809 h 14.7"
         style="fill:none;stroke:#6e6e6e;stroke-width:0.216;stroke-linecap:butt;stroke-linejoin:miter;stroke-miterlimit:22.9256;stroke-dasharray:none;stroke-opacity:1"
         id="path951-4-3-6-9-7" /></g><g
       id="g947-7-1-2-03-9"
       transform="matrix(1.3333333,0,0,-1.3333333,437.68089,1030.7533)"
       style="display:inline"><path
         d="M 37.8377,589.5309 V 574.831"
         style="fill:none;stroke:#6e6e6e;stroke-width:0.216;stroke-linecap:butt;stroke-linejoin:miter;stroke-miterlimit:22.9256;stroke-dasharray:none;stroke-opacity:1"
         id="path949-6-1-2-3-6" /><path
         d="m 30.4877,582.1809 h 14.7"
         style="fill:none;stroke:#6e6e6e;stroke-width:0.216;stroke-linecap:butt;stroke-linejoin:miter;stroke-miterlimit:22.9256;stroke-dasharray:none;stroke-opacity:1"
         id="path951-4-3-6-3-0" /></g><rect
       style="display:inline;fill:#008000;fill-opacity:0.25;stroke:none;stroke-width:3.71323;stroke-opacity:1"
       id="rect109726-4"
       width="317.48032"
       height="166.29921"
       x="488.13116"
       y="88.21286" /></g><g
     inkscape:groupmode="layer"
     id="layer1"
     inkscape:label="90x50-business-card"
     style="display:inline"><rect
       style="display:inline;fill:#008000;fill-opacity:0.25;stroke:none;stroke-width:4.09724;stroke-opacity:1"
       id="rect109726-7"
       width="340.15747"
       height="188.97638"
       x="69.174141"
       y="76.898201" /><rect
       style="display:inline;fill:#008000;fill-opacity:0.25;stroke:none;stroke-width:4.09724;stroke-opacity:1"
       id="rect109726-7-1"
       width="340.15747"
       height="188.97638"
       x="476.7926"
       y="76.874268" /></g><g
     inkscape:groupmode="layer"
     id="layer3"
     inkscape:label="94x54-bleeds"
     style="display:inline"><g
       id="g941-8-08-9"
       transform="matrix(1.3333333,0,0,-1.3333333,26.282875,845.58035)"
       style="display:inline"><path
         d="M 292.9558,589.5309 V 574.831"
         style="fill:none;stroke:#878786;stroke-width:0.216;stroke-linecap:butt;stroke-linejoin:miter;stroke-miterlimit:22.9256;stroke-dasharray:none;stroke-opacity:1"
         id="path943-9-0-0" /><path
         d="m 285.6059,582.1809 h 14.6999"
         style="fill:none;stroke:#878786;stroke-width:0.216;stroke-linecap:butt;stroke-linejoin:miter;stroke-miterlimit:22.9256;stroke-dasharray:none;stroke-opacity:1"
         id="path945-7-4-0" /></g><g
       id="g947-7-1-2"
       transform="matrix(1.3333333,0,0,-1.3333333,11.164815,845.58041)"
       style="display:inline"><path
         d="M 37.8377,589.5309 V 574.831"
         style="fill:none;stroke:#6e6e6e;stroke-width:0.216;stroke-linecap:butt;stroke-linejoin:miter;stroke-miterlimit:22.9256;stroke-dasharray:none;stroke-opacity:1"
         id="path949-6-1-2" /><path
         d="m 30.4877,582.1809 h 14.7"
         style="fill:none;stroke:#6e6e6e;stroke-width:0.216;stroke-linecap:butt;stroke-linejoin:miter;stroke-miterlimit:22.9256;stroke-dasharray:none;stroke-opacity:1"
         id="path951-4-3-6" /></g><g
       id="g953-3-5-9"
       transform="matrix(1.3333333,0,0,-1.3333333,11.164815,860.79985)"
       style="display:inline"><path
         d="M 37.8377,447.8746 V 433.1747"
         style="fill:none;stroke:#6e6e6e;stroke-width:0.216;stroke-linecap:butt;stroke-linejoin:miter;stroke-miterlimit:22.9256;stroke-dasharray:none;stroke-opacity:1"
         id="path955-0-9-0" /><path
         d="m 30.4877,440.5246 h 14.7"
         style="fill:none;stroke:#6e6e6e;stroke-width:0.216;stroke-linecap:butt;stroke-linejoin:miter;stroke-miterlimit:22.9256;stroke-dasharray:none;stroke-opacity:1"
         id="path957-3-3-3" /></g><g
       id="g1007-0-4-5"
       transform="matrix(1.3333333,0,0,-1.3333333,26.282875,860.70498)"
       style="display:inline"><path
         d="M 292.9558,447.8034 V 433.1035"
         style="fill:none;stroke:#878786;stroke-width:0.216;stroke-linecap:butt;stroke-linejoin:miter;stroke-miterlimit:22.9256;stroke-dasharray:none;stroke-opacity:1"
         id="path1009-9-1-5" /><path
         d="m 285.6059,440.4535 h 14.6999"
         style="fill:none;stroke:#878786;stroke-width:0.216;stroke-linecap:butt;stroke-linejoin:miter;stroke-miterlimit:22.9256;stroke-dasharray:none;stroke-opacity:1"
         id="path1011-2-5-8" /></g><g
       id="g941-8-08-9-0"
       transform="matrix(1.3333333,0,0,-1.3333333,433.90131,845.55642)"
       style="display:inline"><path
         d="M 292.9558,589.5309 V 574.831"
         style="fill:none;stroke:#878786;stroke-width:0.216;stroke-linecap:butt;stroke-linejoin:miter;stroke-miterlimit:22.9256;stroke-dasharray:none;stroke-opacity:1"
         id="path943-9-0-0-4" /><path
         d="m 285.6059,582.1809 h 14.6999"
         style="fill:none;stroke:#878786;stroke-width:0.216;stroke-linecap:butt;stroke-linejoin:miter;stroke-miterlimit:22.9256;stroke-dasharray:none;stroke-opacity:1"
         id="path945-7-4-0-8" /></g><g
       id="g947-7-1-2-7"
       transform="matrix(1.3333333,0,0,-1.3333333,418.78325,845.55648)"
       style="display:inline"><path
         d="M 37.8377,589.5309 V 574.831"
         style="fill:none;stroke:#6e6e6e;stroke-width:0.216;stroke-linecap:butt;stroke-linejoin:miter;stroke-miterlimit:22.9256;stroke-dasharray:none;stroke-opacity:1"
         id="path949-6-1-2-0" /><path
         d="m 30.4877,582.1809 h 14.7"
         style="fill:none;stroke:#6e6e6e;stroke-width:0.216;stroke-linecap:butt;stroke-linejoin:miter;stroke-miterlimit:22.9256;stroke-dasharray:none;stroke-opacity:1"
         id="path951-4-3-6-86" /></g><g
       id="g953-3-5-9-2"
       transform="matrix(1.3333333,0,0,-1.3333333,418.78325,860.77592)"
       style="display:inline"><path
         d="M 37.8377,447.8746 V 433.1747"
         style="fill:none;stroke:#6e6e6e;stroke-width:0.216;stroke-linecap:butt;stroke-linejoin:miter;stroke-miterlimit:22.9256;stroke-dasharray:none;stroke-opacity:1"
         id="path955-0-9-0-4" /><path
         d="m 30.4877,440.5246 h 14.7"
         style="fill:none;stroke:#6e6e6e;stroke-width:0.216;stroke-linecap:butt;stroke-linejoin:miter;stroke-miterlimit:22.9256;stroke-dasharray:none;stroke-opacity:1"
         id="path957-3-3-3-79" /></g><g
       id="g1007-0-4-5-3"
       transform="matrix(1.3333333,0,0,-1.3333333,433.90131,860.68105)"
       style="display:inline"><path
         d="M 292.9558,447.8034 V 433.1035"
         style="fill:none;stroke:#878786;stroke-width:0.216;stroke-linecap:butt;stroke-linejoin:miter;stroke-miterlimit:22.9256;stroke-dasharray:none;stroke-opacity:1"
         id="path1009-9-1-5-9" /><path
         d="m 285.6059,440.4535 h 14.6999"
         style="fill:none;stroke:#878786;stroke-width:0.216;stroke-linecap:butt;stroke-linejoin:miter;stroke-miterlimit:22.9256;stroke-dasharray:none;stroke-opacity:1"
         id="path1011-2-5-8-2" /></g><rect
       style="display:inline;fill:#008000;fill-opacity:0.25;stroke:none;stroke-width:4.35157;stroke-opacity:1"
       id="rect109726-7-5"
       width="355.2756"
       height="204.09448"
       x="61.614964"
       y="69.339104" /><rect
       style="display:inline;fill:#008000;fill-opacity:0.25;stroke:none;stroke-width:4.35157;stroke-opacity:1"
       id="rect109726-7-5-6"
       width="355.2756"
       height="204.09448"
       x="469.2334"
       y="69.315239" /></g></svg>
